<?xml version="1.0" encoding="UTF-8" standalone="no"?>
<!-- Created with Inkscape (http://www.inkscape.org/) -->
<svg
   xmlns:svg="http://www.w3.org/2000/svg"
   xmlns="http://www.w3.org/2000/svg"
   version="1.0"
   width="190.97"
   height="204.24001"
   id="svg2926">
  <defs
     id="defs2928">
    <clipPath
       id="clipPath105">
      <path
         d="M 622.226,668.3738 L 759.005,668.3738 L 759.005,815.7696 L 622.226,815.7696 L 622.226,668.3738 z"
         id="path107" />
    </clipPath>
    <clipPath
       id="clipPath97">
      <path
         d="M 595.665,642.5258 L 785.566,642.5258 L 785.566,841.6188 L 595.665,841.6188 L 595.665,642.5258 z"
         id="path99" />
    </clipPath>
  </defs>
  <g
     transform="translate(-289.51327,-440.24007)"
     id="layer1">
    <g
       transform="matrix(1.25,0,0,-1.25,-478.27096,1469.9498)"
       id="g93">
      <g
         clip-path="url(#clipPath97)"
         id="g95">
        <g
           id="g101">
          <g
             clip-path="url(#clipPath105)"
             id="g103">
            <path
               d="M 690.9685,760.9205 C 690.7059,760.524 690.491,758.6607 690.0969,758.5942 C 686.0917,758.7595 683.8588,762.4968 681.8235,763.8197 C 677.2268,767.0608 672.302,771.5587 666.1954,769.0451 C 662.7809,767.7222 661.1392,763.5552 659.8259,760.2477 C 661.8613,742.6531 670.9888,728.9611 684.647,716.4598 C 688.5867,713.8805 691.312,709.5137 695.6128,709.9776 C 707.9577,720.6264 719.1867,731.937 721.2875,747.6141 C 721.7472,753.3685 722.9292,760.777 718.9242,765.0101 C 717.2825,767.028 714.233,765.275 712.5537,765.275 C 707.2347,763.4231 701.9164,760.5126 698.108,755.9485 C 698.108,755.9485 697.3849,754.5593 696.2698,755.0226 C 690.688,749.6648 687.2734,742.2566 689.1777,734.9802 C 689.7688,733.7238 690.688,732.731 692.0012,732.1364 C 697.123,731.078 700.0122,735.3768 703.8207,738.3535 C 704.543,741.1978 708.5817,743.7115 705.9222,746.8862 C 704.2152,746.2252 700.7015,745.1996 698.6329,737.8903 C 697.7794,737.6924 697.2552,738.2213 696.729,738.8173 C 696.0728,741.4627 696.7949,744.1745 697.9114,746.4236 C 700.9317,749.532 705.3965,751.9796 709.7307,750.2598 C 711.0432,746.7542 712.0294,744.7038 709.2709,738.8173 C 706.4472,734.4513 704.2805,732.0699 700.7352,729.7543 C 697.7142,729.159 694.9565,726.5132 691.7386,727.8361 C 686.4857,731.5403 684.7129,738.4864 686.2887,744.5054 C 688.1274,754.3608 696.8608,762.1659 705.2,767.1268 C 708.6799,768.5161 711.9634,770.2359 715.838,770.5004 C 717.6762,769.7065 719.7447,768.8798 721.715,768.3509 C 726.8359,763.8528 726.9852,757.6248 727.9047,751.2746 C 725.8032,739.7655 724.142,732.6713 714.9087,721.3026 C 711.035,715.7458 706.2507,711.6639 700.8657,705.3472 C 697.4667,701.6656 694.3882,702.0101 688.5746,706.1434 C 679.6826,709.933 677.5227,713.0525 670.6606,720.5607 C 659.1697,733.955 653.4238,746.8534 654.9011,762.5629 C 654.8356,765.0765 655.6237,767.7886 657.7246,769.5084 C 660.7451,772.8152 665.3418,774.7999 669.7415,773.8076 C 678.54,773.0137 690.9685,760.9205 690.9685,760.9205"
               id="path109"
               style="fill:#ed192d;fill-opacity:1;fill-rule:nonzero;stroke:none" />
            <path
               d="M 644.1598,709.0023 C 646.8503,710.4022 647.1806,708.0081 647.8322,708.3465 C 648.0021,708.4357 648.0859,708.552 647.9691,708.7794 C 647.8666,708.9796 646.349,711.6586 646.2175,711.9163 C 645.4713,713.3713 644.8384,714.8846 644.0924,716.3397 C 640.0403,724.2422 633.9429,725.0076 627.4294,721.6183 C 622.1904,718.8925 620.9409,711.954 623.53,706.905 C 624.7883,704.4512 625.8525,702.6561 626.8179,700.7726 C 627.257,699.9174 627.5679,699.0312 628.0212,698.1472 C 628.1091,697.9758 628.3113,697.7922 628.5094,697.8949 C 629.2737,698.2923 627.168,700.1606 630.0566,701.6641 L 644.1598,709.0023 z M 628.3629,703.6367 C 627.0317,702.9447 626.5205,702.8231 625.1304,705.533 C 622.3794,710.9673 623.7827,717.0468 630.0695,720.3181 C 636.6111,723.7224 640.7383,720.9913 642.8158,716.9403 C 643.4739,715.6559 644.2458,713.3116 643.7943,711.8837 C 643.6709,711.4947 642.2676,710.8729 641.815,710.6371"
               id="path111"
               style="fill:#14356f;fill-opacity:1;fill-rule:nonzero;stroke:none" />
            <path
               d="M 638.3799,734.202 C 637.7983,738.1079 634.3955,740.6128 630.5181,740.0269 C 624.655,739.1407 624.1555,734.4875 624.5151,732.0745 C 625.111,728.0734 628.8796,725.4933 632.7567,726.0789 C 637.012,726.7225 638.9948,730.0739 638.3799,734.202 z M 637.6753,734.3878 C 638.229,730.6722 634.4117,728.6022 631.3223,728.136 C 628.6431,727.7303 625.7427,728.5901 625.2794,731.7028 C 624.7166,735.4818 628.0754,737.3849 631.3223,737.8752 C 635.2308,738.4668 637.2783,737.0555 637.6753,734.3878"
               id="path113"
               style="fill:#14356f;fill-opacity:1;fill-rule:nonzero;stroke:none" />
            <path
               d="M 634.9939,745.632 C 637.175,745.3453 636.6206,748.2673 637.4743,748.1556 C 637.8536,748.1058 637.8877,747.8745 637.8262,747.3968 C 637.7558,746.8556 637.5471,746.2355 637.3083,744.3889 C 637.0897,742.7015 637.134,742.0477 637.0842,741.666 C 637.0307,741.2521 636.9469,741.1012 636.6308,741.1425 C 635.9988,741.2258 636.874,743.0209 634.8196,743.291 L 626.9812,744.3206 C 625.0846,744.5695 625.6013,742.1053 624.9377,742.1927 C 624.748,742.2175 624.6382,742.3614 624.6272,742.5251 C 624.4001,745.2424 623.4711,746.012 623.5659,746.7442 C 623.5908,746.9353 623.8051,747.1013 624.1211,747.0596 L 626.207,746.7859 C 626.5784,746.6722 624.0662,748.6215 624.4657,751.71 C 625.0179,755.9758 628.646,756.4385 631.048,756.1234 L 636.2632,755.438 C 638.4443,755.1517 637.8489,757.7554 638.7021,757.6436 C 639.0815,757.5938 639.116,757.3625 639.075,757.0441 C 639.0212,756.6302 638.7915,755.8508 638.5897,754.2907 C 638.4333,753.0807 638.4729,752.3957 638.4194,751.9818 C 638.366,751.5679 638.2821,751.417 637.9661,751.4584 C 637.3339,751.5417 638.1432,752.8277 636.0889,753.0974 L 630.1782,753.8738 C 628.5977,754.0812 626.0789,753.2464 625.7452,750.6674 C 625.3992,747.9929 627.2145,746.6213 627.7242,746.5867"
               id="path115"
               style="fill:#14356f;fill-opacity:1;fill-rule:nonzero;stroke:none" />
            <path
               d="M 636.3782,779.5763 C 635.1843,779.0363 634.1718,778.1196 633.4675,776.9727 C 631.3552,773.532 633.162,769.2723 636.3613,767.2796 C 639.1533,765.5398 643.0146,765.6638 644.8588,768.6677 C 645.8315,770.2514 646.0216,772.2095 645.4258,773.8644 L 645.4595,773.919 L 646.9507,772.9901 C 647.1404,772.8716 647.4073,772.8185 647.5417,773.0369 C 647.6926,773.283 647.9449,774.1824 648.3811,774.8925 C 649.0015,775.9028 649.2476,776.731 649.0579,776.8495 C 648.8411,776.9845 648.7737,776.8753 648.6294,776.7008 C 647.9401,775.8844 647.3883,775.4731 647.0627,775.6757 L 628.5204,787.228 C 628.2494,787.397 627.9861,787.3342 627.8857,787.1705 C 627.4998,786.5422 627.8477,785.1555 627.0446,782.7489 C 626.9878,782.5954 627.0292,782.4183 627.1921,782.3173 C 627.7612,781.9624 628.3809,784.5587 630.0076,783.5457 L 636.3782,779.5763 z M 643.8328,774.9319 C 644.8091,774.324 645.6887,772.6433 644.2971,770.3768 C 642.7041,767.7827 638.4451,768.1708 636.1951,769.5726 C 633.9451,770.9744 632.2634,773.6077 633.8396,776.1744 C 635.0466,778.1406 637.1912,779.0698 639.1973,777.82"
               id="path117"
               style="fill:#14356f;fill-opacity:1;fill-rule:nonzero;stroke:none" />
            <path
               d="M 649.1754,791.9625 C 648.3525,792.8574 647.6326,791.136 647.1129,791.7013 C 646.9397,791.8898 647.222,792.197 647.3389,792.3063 C 648.0171,792.9385 648.2797,793.3148 648.4719,793.6254 C 648.6858,793.9124 648.8315,794.1795 649.2057,794.5285 C 649.2992,794.6159 649.7346,794.8036 650.1463,794.3558 L 657.6396,786.2047 C 658.2029,785.5923 659.3945,787.2729 659.8713,786.7543 C 660.0446,786.5662 659.5751,786.0844 659.2008,785.7355 C 658.546,785.1246 658.2834,784.7483 658.0462,784.4396 C 657.8542,784.1289 657.7319,783.8836 657.3811,783.5564 C 657.194,783.382 656.9321,783.6191 656.8457,783.7131 L 655.6548,785.0091 L 655.6079,784.9656 C 655.9009,783.1819 655.2526,781.5714 654.0134,780.4149 C 652.1425,778.6697 649.5376,778.384 647.697,780.3865 L 642.6506,785.8756 C 641.8275,786.7706 641.1078,785.0493 640.5881,785.6144 C 640.4146,785.8029 640.6973,786.1103 640.8141,786.2194 C 641.4923,786.8517 641.7549,787.228 641.9471,787.5386 C 642.161,787.8256 642.3064,788.0927 642.6806,788.4417 C 642.7744,788.5291 643.2102,788.7169 643.6214,788.269 L 649.1007,782.3087 C 651.373,779.79 653.5125,781.4791 653.8164,781.7632 C 655.1494,783.0063 655.4094,785.0869 654.8279,785.8137"
               id="path119"
               style="fill:#14356f;fill-opacity:1;fill-rule:nonzero;stroke:none" />
            <path
               d="M 664.6284,795.6455 C 664.3047,796.2136 664.3442,796.5995 664.6467,796.7012 C 665.0697,796.8444 665.1913,796.4792 665.5556,795.8912 C 666.3848,794.6133 669.2522,792.0606 673.4226,793.4705 C 676.293,794.4407 678.566,797.0045 677.5011,800.2006 C 675.5437,806.0753 664.3706,798.6401 661.7236,806.5848 C 660.4357,810.4508 663.0504,813.4009 666.5254,814.5758 C 670.1816,815.8116 671.5439,815.0532 671.9673,815.1963 C 672.239,815.2878 672.1881,815.6434 672.4902,815.7452 C 672.6714,815.8068 672.8531,815.7666 672.9949,815.442 L 674.8275,811.4553 C 674.9387,811.2218 674.9494,810.9886 674.6472,810.886 C 674.3147,810.7739 673.8902,811.3417 673.7083,811.5848 C 671.9296,813.8963 669.2775,814.4898 666.6184,813.5908 C 664.2307,812.7837 662.0781,810.7688 663.0112,807.9684 C 664.9177,802.2458 676.0707,809.7418 678.8696,801.3405 C 679.7214,798.7833 679.2164,794.3455 672.3569,792.0266 C 670.1208,791.2704 666.9956,791.467 666.6924,791.9742"
               id="path121"
               style="fill:#14356f;fill-opacity:1;fill-rule:nonzero;stroke:none" />
            <path
               d="M 689.6436,803.3414 C 682.2607,801.695 681.8257,799.6462 681.9143,797.9467 C 682.0338,795.6702 683.4429,794.9733 685.5119,795.0833 C 687.2943,795.1781 689.0078,795.9768 690.2844,797.2018 C 690.7535,796.1656 691.6116,795.6326 692.853,795.6986 C 693.2983,795.7222 694.6929,795.9247 694.657,796.598 C 694.6453,796.8226 694.3911,796.809 694.2314,796.8009 C 694.104,796.7939 693.8213,796.7145 693.6938,796.7079 C 692.0386,796.6198 692.2261,798.5266 692.1686,799.617 L 691.8214,806.2542 C 691.6786,808.9796 688.5925,809.3943 686.6194,809.2895 C 683.0811,809.198 681.4163,806.8589 681.4613,805.3821 C 681.4917,804.8052 682.4717,804.3751 683.0129,804.4039 C 683.6176,804.4355 683.6995,804.6974 683.6813,805.0501 C 683.6626,805.4028 683.4465,805.8735 683.4216,806.3546 C 683.329,808.1179 684.562,808.3444 686.0899,808.4255 C 688.0634,808.5303 689.4271,807.4775 689.5146,805.8101 L 689.6436,803.3414 z M 689.8787,798.8523 C 689.968,797.1528 687.8506,796.1398 686.7043,796.0793 C 685.0176,795.9893 684.0574,796.6459 683.9619,798.4734 C 683.8142,801.2951 687.6704,802.0145 689.6838,802.5718"
               id="path123"
               style="fill:#14356f;fill-opacity:1;fill-rule:nonzero;stroke:none" />
            <path
               d="M 700.3632,797.3867 C 699.8389,795.2353 702.7834,795.4655 702.5779,794.6236 C 702.4872,794.2496 702.2554,794.2407 701.7905,794.3558 C 701.264,794.4857 700.676,794.7639 698.8812,795.208 C 697.2402,795.6138 696.5898,795.6426 696.2192,795.7344 C 695.8164,795.834 695.6772,795.9347 695.7534,796.2465 C 695.905,796.8702 697.5792,795.7945 698.0734,797.8213 L 699.959,805.554 C 700.4157,807.4251 697.9272,807.1812 698.087,807.836 C 698.132,808.0234 698.2872,808.1171 698.4492,808.1101 C 701.1559,808.0356 702.0177,808.88 702.7294,808.704 C 702.9147,808.658 703.0557,808.4248 702.9792,808.1135 L 702.4767,806.055 C 702.3245,805.6965 704.5264,807.9951 707.5294,807.2521 C 711.6762,806.2255 711.7302,802.5424 711.1527,800.1726 L 709.8979,795.0276 C 709.3729,792.8759 712.007,793.1827 711.8022,792.3409 C 711.7114,791.9668 711.4789,791.958 711.1692,792.0347 C 710.7672,792.1343 710.0239,792.4505 708.5074,792.8257 C 707.3307,793.1171 706.6505,793.1533 706.2477,793.2528 C 705.8464,793.3524 705.7054,793.4528 705.782,793.7648 C 705.9342,794.3883 707.1132,793.4351 707.6067,795.4618 L 709.0294,801.293 C 709.4105,802.8522 708.8652,805.4662 706.3587,806.0867 C 703.7584,806.7301 702.2029,805.0649 702.1122,804.5587"
               id="path125"
               style="fill:#14356f;fill-opacity:1;fill-rule:nonzero;stroke:none" />
            <path
               d="M 711.0875,788.4358 C 711.4932,789.1632 712.7134,790.1666 713.5737,789.6786 C 713.7957,789.5528 714.0477,789.1522 716.3345,787.7449 C 719.1484,786.0387 720.0889,785.4315 719.4327,784.2562 C 718.8694,783.2491 717.0784,781.9432 713.2729,784.1008 C 711.746,784.9674 710.0397,786.5611 711.0875,788.4358 z M 723.0462,800.9985 C 720.5742,802.4003 717.5427,801.688 716.1192,799.1419 C 715.3527,797.7711 715.226,796.0372 715.9745,794.6923 L 715.9422,794.6362 C 715.9144,794.652 713.8572,794.3083 713.2317,793.189 C 712.7,792.2376 712.4457,791.1287 713.0517,790.3802 C 711.8765,790.5676 710.3517,790.3267 709.7104,789.1799 C 708.4287,786.8857 710.9697,784.5601 712.7472,783.552 C 717.3852,780.9213 720.1557,782.4088 721.1404,784.1713 C 722.6892,786.9414 719.3929,788.4417 717.0604,789.7645 C 713.561,791.7493 714.4084,792.7427 714.5344,792.9666 C 714.8929,793.6099 716.0607,794.1271 716.7267,793.7493 C 717.0882,793.5443 717.1017,793.2417 718.5184,792.4384 C 721.046,791.0051 724.037,791.4467 725.5212,794.1046 C 725.8032,794.6082 726.0012,795.1592 726.1564,795.6979 C 727.5432,795.7584 728.0225,795.634 729.2262,797.7884 C 729.3199,797.9563 729.5045,798.2204 729.2547,798.3621 C 728.8655,798.5826 727.7262,796.871 726.3927,797.6268 C 725.615,798.0676 725.3517,799.6909 723.0462,800.9985 z M 723.5284,794.7926 C 722.528,793.002 720.89,791.9041 718.9459,793.0068 C 716.8895,794.1725 717.2382,796.6282 718.2245,798.3909 C 719.24,800.2095 720.8142,801.4542 722.8692,800.2885 C 724.952,799.1072 724.5132,796.5552 723.5284,794.7926"
               id="path127"
               style="fill:#14356f;fill-opacity:1;fill-rule:nonzero;stroke:none" />
            <path
               d="M 737.0607,775.2341 C 734.3742,773.8252 734.0359,776.2179 733.3849,775.8771 C 733.2155,775.7878 733.1322,775.6716 733.2507,775.444 C 733.3527,775.2444 734.8797,772.5699 735.0117,772.3135 C 735.7625,770.8612 736.4007,769.3494 737.1514,767.8971 C 741.2292,760.0087 747.329,759.2628 753.8314,762.6735 C 759.062,765.4171 760.2882,772.3593 757.6827,777.4003 C 756.416,779.8494 755.3464,781.6411 754.3752,783.5206 C 753.9327,784.3749 753.6192,785.2603 753.1625,786.1428 C 753.074,786.3138 752.8722,786.4973 752.6742,786.3936 C 751.9107,785.9929 754.0227,784.1322 751.1389,782.6198 L 737.0607,775.2341 z M 752.8392,780.6517 C 754.1682,781.3486 754.679,781.4721 756.077,778.7667 C 758.8475,773.3409 757.463,767.2574 751.1877,763.9655 C 744.6575,760.5391 740.5204,763.2568 738.4302,767.301 C 737.7679,768.5822 736.9872,770.9243 737.4357,772.3538 C 737.5572,772.7437 738.9575,773.3701 739.4105,773.6072"
               id="path129"
               style="fill:#14356f;fill-opacity:1;fill-rule:nonzero;stroke:none" />
            <path
               d="M 742.9227,750.0536 C 743.5175,746.1499 746.9285,743.6561 750.8037,744.2549 C 756.6635,745.1605 757.1479,749.8153 756.7805,752.2274 C 756.1714,756.2267 752.3945,758.7935 748.52,758.1948 C 744.2659,757.5378 742.2942,754.1793 742.9227,750.0536 z M 743.6277,749.8702 C 743.0622,753.5832 746.8729,755.6667 749.96,756.1437 C 752.6382,756.5576 755.5407,755.7065 756.0147,752.5967 C 756.59,748.82 753.2382,746.9047 749.9929,746.4034 C 746.0854,745.7994 744.0342,747.2042 743.6277,749.8702"
               id="path131"
               style="fill:#14356f;fill-opacity:1;fill-rule:nonzero;stroke:none" />
            <path
               d="M 746.3464,738.6353 C 744.1632,738.9148 744.7272,735.9948 743.8737,736.1036 C 743.4942,736.1519 743.459,736.3831 743.5189,736.8613 C 743.588,737.4023 743.7942,738.0233 744.0275,739.8705 C 744.2397,741.559 744.1947,742.2123 744.2427,742.5945 C 744.2944,743.0084 744.3777,743.1597 744.6942,743.1191 C 745.3265,743.0383 744.4572,741.2399 746.5122,740.9769 L 754.3542,739.9733 C 756.2517,739.7307 755.7267,742.1931 756.3904,742.1083 C 756.5809,742.0839 756.6912,741.94 756.7025,741.777 C 756.9387,739.0606 757.8702,738.2938 757.778,737.5609 C 757.7532,737.3705 757.5387,737.2036 757.223,737.2436 L 755.1365,737.511 C 754.7645,737.6229 757.2837,735.6827 756.8937,732.5928 C 756.3552,728.325 752.7289,727.8497 750.3259,728.1572 L 745.1082,728.8251 C 742.9272,729.1039 743.5309,726.5027 742.6767,726.6115 C 742.2972,726.6606 742.262,726.8903 742.3025,727.2098 C 742.3542,727.6238 742.5814,728.4035 742.778,729.9651 C 742.931,731.1754 742.889,731.8607 742.9407,732.2739 C 742.9932,732.6879 743.0765,732.8391 743.3929,732.799 C 744.0252,732.7174 743.2205,731.4293 745.2755,731.1671 L 751.1885,730.4101 C 752.7695,730.2076 755.2857,731.0508 755.6112,733.6308 C 755.9479,736.306 754.1292,737.672 753.6185,737.7052"
               id="path133"
               style="fill:#14356f;fill-opacity:1;fill-rule:nonzero;stroke:none" />
            <path
               d="M 745.0729,704.6868 C 746.2654,705.23 747.275,706.151 747.9755,707.3001 C 750.0762,710.7475 748.2552,715.0017 745.0497,716.9834 C 742.2522,718.7134 738.3904,718.5775 736.5567,715.5668 C 735.59,713.9802 735.4055,712.0212 736.007,710.3682 L 735.9739,710.3138 L 734.4792,711.2378 C 734.2887,711.3557 734.0225,711.4078 733.8882,711.1887 C 733.7382,710.9424 733.4885,710.0426 733.0557,709.3301 C 732.4385,708.3178 732.1947,707.489 732.3845,707.3712 C 732.6019,707.2374 732.6687,707.3462 732.8127,707.5215 C 733.4997,708.3405 734.0494,708.7529 734.3757,708.552 L 752.9554,697.0616 C 753.2277,696.8931 753.4902,696.9565 753.5914,697.1205 C 753.9747,697.7506 753.6222,699.1362 754.4172,701.5463 C 754.4734,701.6996 754.4315,701.8764 754.2679,701.9769 C 753.6979,702.3297 753.0867,699.7308 751.457,700.7386 L 745.0729,704.6868 z M 737.603,709.306 C 736.6257,709.9111 735.74,711.5891 737.1245,713.8594 C 738.7084,716.459 742.9684,716.0851 745.2245,714.6904 C 747.4782,713.2965 749.168,710.6697 747.6012,708.0964 C 746.4005,706.1268 744.2584,705.1908 742.2485,706.4328"
               id="path135"
               style="fill:#14356f;fill-opacity:1;fill-rule:nonzero;stroke:none" />
            <path
               d="M 732.317,692.2589 C 733.1427,691.3658 733.8567,693.0907 734.3787,692.5271 C 734.5527,692.3382 734.2707,692.0307 734.1545,691.9204 C 733.4772,691.2858 733.217,690.9088 733.0257,690.5975 C 732.8127,690.3097 732.668,690.0422 732.2944,689.6924 C 732.2015,689.6048 731.7665,689.4152 731.3532,689.8624 L 723.8329,697.9886 C 723.2682,698.5991 722.0825,696.9142 721.6032,697.4303 C 721.4299,697.6184 721.8979,698.1019 722.2715,698.4525 C 722.9232,699.0652 723.1857,699.4421 723.4212,699.752 C 723.6124,700.0632 723.7332,700.3087 724.0834,700.6366 C 724.2695,700.8126 724.5327,700.5762 724.6197,700.4818 L 725.8152,699.1906 L 725.8617,699.2336 C 725.5632,701.0159 726.2052,702.6296 727.4412,703.7901 C 729.3057,705.5421 731.9105,705.8352 733.757,703.8392 L 738.8209,698.3679 C 739.6475,697.4749 740.3615,699.1981 740.8834,698.6345 C 741.0567,698.4471 740.7755,698.1389 740.6592,698.0294 C 739.9827,697.3948 739.7225,697.017 739.5305,696.7057 C 739.3182,696.4179 739.1727,696.1512 738.7992,695.8007 C 738.707,695.713 738.272,695.5242 737.8587,695.9706 L 732.3597,701.9119 C 730.079,704.4232 727.9445,702.7271 727.6415,702.443 C 726.3132,701.1949 726.0604,699.1135 726.6439,698.3882"
               id="path137"
               style="fill:#14356f;fill-opacity:1;fill-rule:nonzero;stroke:none" />
            <path
               d="M 716.876,688.5237 C 717.2015,687.957 717.1632,687.571 716.8617,687.4683 C 716.4387,687.3232 716.3157,687.6888 715.949,688.2759 C 715.1165,689.5511 712.2402,692.0934 708.074,690.6693 C 705.2075,689.6895 702.9432,687.1192 704.0179,683.9257 C 705.9949,678.0577 717.1437,685.5297 719.8167,677.5939 C 721.1179,673.7325 718.5125,670.774 715.0407,669.5878 C 711.389,668.339 710.0239,669.093 709.6017,668.9487 C 709.3302,668.8558 709.382,668.5007 709.0804,668.3987 C 708.8989,668.3367 708.7182,668.376 708.575,668.7001 L 706.7292,672.6808 C 706.6167,672.9136 706.6055,673.147 706.9077,673.2498 C 707.2399,673.3638 707.666,672.7972 707.8489,672.5547 C 709.6354,670.2489 712.2889,669.6641 714.9454,670.5715 C 717.3304,671.3875 719.4762,673.4092 718.5342,676.2068 C 716.6082,681.9229 705.4797,674.389 702.6537,682.7811 C 701.7927,685.3354 702.2839,689.7748 709.1352,692.1168 C 711.3687,692.8814 714.4947,692.6948 714.7992,692.1886"
               id="path139"
               style="fill:#14356f;fill-opacity:1;fill-rule:nonzero;stroke:none" />
            <path
               d="M 691.8859,680.7443 C 699.2629,682.4147 699.6927,684.4651 699.5975,686.1642 C 699.4714,688.4413 698.0592,689.1334 695.9907,689.017 C 694.2087,688.9158 692.4978,688.1112 691.2252,686.8812 C 690.7528,687.917 689.8933,688.4474 688.6519,688.3763 C 688.2065,688.3514 686.8135,688.1444 686.8508,687.472 C 686.8633,687.2469 687.1178,687.2605 687.2771,687.2695 C 687.4042,687.2771 687.6873,687.358 687.8143,687.3647 C 689.4692,687.4584 689.2883,685.5508 689.3488,684.4598 L 689.7179,677.8243 C 689.8691,675.1 692.957,674.695 694.9302,674.8061 C 698.468,674.9095 700.1247,677.2546 700.0745,678.7301 C 700.0422,679.3074 699.0612,679.735 698.5204,679.704 C 697.9152,679.67 697.8342,679.4078 697.8537,679.055 C 697.8732,678.7022 698.0914,678.233 698.1177,677.7518 C 698.2159,675.9884 696.9839,675.7588 695.4561,675.6719 C 693.4829,675.5608 692.1158,676.6094 692.0232,678.2761 L 691.8859,680.7443 z M 691.6365,685.2335 C 691.542,686.9318 693.6558,687.951 694.8013,688.016 C 696.4888,688.1119 697.4502,687.4584 697.5522,685.6309 C 697.709,682.8106 693.855,682.0778 691.843,681.5142"
               id="path141"
               style="fill:#14356f;fill-opacity:1;fill-rule:nonzero;stroke:none" />
            <path
               d="M 681.1467,686.6629 C 681.6642,688.8168 678.7202,688.5773 678.9231,689.4197 C 679.0132,689.7944 679.2446,689.8035 679.7097,689.6895 C 680.2363,689.561 680.8259,689.2852 682.6226,688.847 C 684.2646,688.4474 684.9143,688.4202 685.2856,688.3303 C 685.6885,688.2313 685.8284,688.1316 685.7537,687.8196 C 685.6035,687.1955 683.9255,688.2653 683.4381,686.2368 L 681.5777,678.4974 C 681.1276,676.6246 683.6154,676.8769 683.4575,676.2219 C 683.4128,676.0345 683.259,675.9401 683.0964,675.9469 C 680.3901,676.0126 679.5303,675.1649 678.8181,675.3387 C 678.6323,675.384 678.491,675.616 678.5664,675.928 L 679.0615,677.9882 C 679.2131,678.3471 677.0192,676.0421 674.0144,676.7742 C 669.863,677.7865 669.7971,681.4696 670.3673,683.8419 L 671.6047,688.9906 C 672.1226,691.1445 669.4888,690.8287 669.6909,691.6711 C 669.781,692.045 670.0132,692.0549 670.323,691.9794 C 670.7258,691.8811 671.47,691.5676 672.9883,691.1974 C 674.1653,690.9095 674.8457,690.8755 675.2485,690.7789 C 675.6514,690.6799 675.7913,690.5794 675.7162,690.2681 C 675.566,689.6441 674.3839,690.5922 673.8964,688.5637 L 672.4939,682.7283 C 672.1189,681.1682 672.6712,678.5556 675.1807,677.9437 C 677.7827,677.3083 679.3325,678.9794 679.4212,679.4856"
               id="path143"
               style="fill:#14356f;fill-opacity:1;fill-rule:nonzero;stroke:none" />
            <path
               d="M 670.3937,695.5786 C 669.9897,694.8495 668.7736,693.8417 667.9111,694.3275 C 667.6885,694.4529 667.4354,694.8525 665.1448,696.2524 C 662.325,697.9493 661.3823,698.5537 662.0349,699.7308 C 662.5945,700.7394 664.3809,702.0509 668.1932,699.9068 C 669.7239,699.0448 671.4352,697.4567 670.3937,695.5786 z M 658.4761,682.9753 C 660.9525,681.5829 663.9821,682.3052 665.3967,684.8557 C 666.1584,686.2292 666.28,687.9631 665.5278,689.3056 L 665.5587,689.3623 C 665.5864,689.3457 667.6431,689.697 668.265,690.8181 C 668.7937,691.7716 669.0438,692.8814 668.4355,693.6279 C 669.6119,693.4443 671.1353,693.6898 671.7728,694.8397 C 673.0476,697.1387 670.4988,699.455 668.7175,700.4568 C 664.0707,703.0716 661.3054,701.5757 660.3262,699.8093 C 658.7874,697.0344 662.0873,695.5446 664.4248,694.23 C 667.9309,692.2574 667.0864,691.2609 666.9619,691.0365 C 666.6045,690.392 665.4392,689.87 664.7713,690.2462 C 664.4098,690.4502 664.3948,690.7524 662.9757,691.551 C 660.4434,692.9758 657.4551,692.5248 655.9781,689.8624 C 655.698,689.3577 655.5017,688.8055 655.349,688.2661 C 653.9619,688.2003 653.4824,688.3242 652.2853,686.1658 C 652.1919,685.9973 652.0087,685.7321 652.2593,685.5916 C 652.6489,685.3725 653.7827,687.0883 655.1187,686.3365 C 655.8976,685.8983 656.1664,684.2755 658.4761,682.9753 z M 657.9736,689.1802 C 658.9682,690.9745 660.6023,692.0776 662.5505,690.9813 C 664.6094,689.8224 664.2695,687.3655 663.2903,685.5999 C 662.2795,683.7784 660.71,682.528 658.6511,683.687 C 656.5637,684.8618 656.994,687.4138 657.9736,689.1802"
               id="path145"
               style="fill:#14356f;fill-opacity:1;fill-rule:nonzero;stroke:none" />
            <path
               d="M 733.5079,783.3575 C 734.7245,783.3575 735.7114,784.3514 735.7114,785.5768 C 735.7114,786.8023 734.7245,787.7961 733.5079,787.7961 C 732.2907,787.7961 731.3044,786.8023 731.3044,785.5768 C 731.3044,784.3514 732.2907,783.3575 733.5079,783.3575"
               id="path147"
               style="fill:#ed192d;fill-opacity:1;fill-rule:nonzero;stroke:none" />
            <path
               d="M 646.5354,695.4403 C 647.752,695.4403 648.7385,696.4338 648.7385,697.6592 C 648.7385,698.8854 647.752,699.8788 646.5354,699.8788 C 645.3185,699.8788 644.3323,698.8854 644.3323,697.6592 C 644.3323,696.4338 645.3185,695.4403 646.5354,695.4403"
               id="path149"
               style="fill:#ed192d;fill-opacity:1;fill-rule:nonzero;stroke:none" />
          </g>
        </g>
      </g>
    </g>
  </g>
</svg>
